<?xml version="1.0" standalone="no"?>
<!DOCTYPE svg PUBLIC "-//W3C//DTD SVG 20010904//EN"
 "http://www.w3.org/TR/2001/REC-SVG-20010904/DTD/svg10.dtd">
<svg version="1.0" xmlns="http://www.w3.org/2000/svg"
 width="1089.000000pt" height="1089.000000pt" viewBox="0 0 1089.000000 1089.000000"
 preserveAspectRatio="xMidYMid meet">
<metadata>
Created by potrace 1.11, written by Peter Selinger 2001-2013
</metadata>
<g transform="translate(0.000000,1089.000000) scale(0.100000,-0.100000)"
fill="#000000" stroke="none">
<path d="M3710 8669 l0 -1993 -52 51 c-29 28 -358 303 -731 612 l-679 561
-1126 0 -1127 -1 1234 -1227 1234 -1227 -939 -935 c-517 -514 -1072 -1066
-1234 -1227 l-295 -293 1065 0 1065 0 795 795 795 795 5 -2171 5 -2171 777
799 777 798 1 3636 0 3635 -785 778 -785 778 0 -1993z"/>
<path d="M6393 9880 l-783 -775 1 -3635 0 -3635 777 -797 777 -797 5 2170 5
2169 795 -795 795 -795 1065 0 1065 1 -1233 1226 -1234 1226 1234 1228 1233
1228 -1125 0 -1126 1 -689 -571 c-380 -314 -709 -589 -732 -612 l-43 -41 -2
1989 -3 1989 -782 -774z"/>
</g>
</svg>
